<svg width="91" height="23" viewBox="0 0 91 23" fill="none" xmlns="http://www.w3.org/2000/svg">
<path d="M20.1094 14.9531L20.0156 22H0.703125V20.2656H1.01562C2.07812 20.2656 2.76562 20.0729 3.07812 19.6875C3.40104 19.2917 3.5625 18.6198 3.5625 17.6719V5.14062C3.5625 4.17188 3.39583 3.5 3.0625 3.125C2.72917 2.73958 2.04688 2.54688 1.01562 2.54688H0.703125V0.8125H12.0625V2.54688H11.6406C10.5781 2.54688 9.88542 2.74479 9.5625 3.14062C9.25 3.52604 9.09375 4.19271 9.09375 5.14062V17.2344C9.09375 18.1406 9.14583 18.7396 9.25 19.0312C9.35417 19.3229 9.625 19.5781 10.0625 19.7969C10.5104 20.0052 11.2865 20.1094 12.3906 20.1094C14.2448 20.1094 15.6302 19.6458 16.5469 18.7188C17.4635 17.7812 18.0885 16.526 18.4219 14.9531H20.1094ZM21.5312 15.5625C21.5312 13.4167 22.2917 11.7344 23.8125 10.5156C25.3333 9.29688 27.1719 8.6875 29.3281 8.6875C31.4323 8.6875 33.2656 9.28125 34.8281 10.4688C36.3906 11.6458 37.1719 13.349 37.1719 15.5781C37.1719 17.6927 36.4062 19.3802 34.875 20.6406C33.3438 21.8906 31.4896 22.5156 29.3125 22.5156C27.1875 22.5156 25.3594 21.9219 23.8281 20.7344C22.2969 19.5365 21.5312 17.8125 21.5312 15.5625ZM26.8906 15.4062C26.8906 17.4062 27.0729 18.8073 27.4375 19.6094C27.8125 20.401 28.4583 20.7969 29.375 20.7969C30.1146 20.7969 30.7031 20.4635 31.1406 19.7969C31.5885 19.1302 31.8125 17.7083 31.8125 15.5312C31.8125 13.5521 31.6146 12.2135 31.2188 11.5156C30.8229 10.8073 30.1979 10.4531 29.3438 10.4531C28.6667 10.4531 28.0885 10.7552 27.6094 11.3594C27.1302 11.9531 26.8906 13.3021 26.8906 15.4062ZM46.0938 11.9062C46.6979 10.8333 47.3854 10.0312 48.1562 9.5C48.9271 8.95833 49.776 8.6875 50.7031 8.6875C51.5885 8.6875 52.2604 8.96875 52.7188 9.53125C53.1771 10.0833 53.4062 10.6875 53.4062 11.3438C53.4062 11.9583 53.224 12.4844 52.8594 12.9219C52.4948 13.3594 51.9844 13.5781 51.3281 13.5781C50.974 13.5781 50.6823 13.5104 50.4531 13.375C50.224 13.2396 49.9219 12.9583 49.5469 12.5312C49.1719 12.1146 48.7656 11.9062 48.3281 11.9062C47.651 11.9062 47.1406 12.3229 46.7969 13.1562C46.4635 13.9792 46.2969 15.2188 46.2969 16.875V18.2656C46.2969 19.0365 46.4167 19.5781 46.6562 19.8906C46.8958 20.1927 47.4479 20.3438 48.3125 20.3438H48.625V22H39.1406V20.3438C40.0469 20.3438 40.6198 20.1927 40.8594 19.8906C41.099 19.5885 41.2188 19.0469 41.2188 18.2656V13.7969C41.2188 13.0052 41.0938 12.4635 40.8438 12.1719C40.6042 11.8698 40.026 11.7188 39.1094 11.7188V10.0625L45.5938 8.6875C45.8854 9.53125 46.0521 10.6042 46.0938 11.9062ZM54.875 15.5625C54.875 13.4167 55.6354 11.7344 57.1562 10.5156C58.6771 9.29688 60.5156 8.6875 62.6719 8.6875C64.776 8.6875 66.6094 9.28125 68.1719 10.4688C69.7344 11.6458 70.5156 13.349 70.5156 15.5781C70.5156 17.6927 69.75 19.3802 68.2188 20.6406C66.6875 21.8906 64.8333 22.5156 62.6562 22.5156C60.5312 22.5156 58.7031 21.9219 57.1719 20.7344C55.6406 19.5365 54.875 17.8125 54.875 15.5625ZM60.2344 15.4062C60.2344 17.4062 60.4167 18.8073 60.7812 19.6094C61.1562 20.401 61.8021 20.7969 62.7188 20.7969C63.4583 20.7969 64.0469 20.4635 64.4844 19.7969C64.9323 19.1302 65.1562 17.7083 65.1562 15.5312C65.1562 13.5521 64.9583 12.2135 64.5625 11.5156C64.1667 10.8073 63.5417 10.4531 62.6875 10.4531C62.0104 10.4531 61.4323 10.7552 60.9531 11.3594C60.474 11.9531 60.2344 13.3021 60.2344 15.4062ZM83.4688 20.25C82.7917 21 82.0573 21.5677 81.2656 21.9531C80.4844 22.3281 79.6406 22.5156 78.7344 22.5156C77.5781 22.5156 76.526 22.1927 75.5781 21.5469C74.6406 20.901 74.1719 19.6667 74.1719 17.8438V12.9375C74.1719 12.1354 74.0417 11.5885 73.7812 11.2969C73.5312 11.0052 73.0156 10.8594 72.2344 10.8594V9.20312H79.2188V17.5625C79.2188 18.375 79.3438 18.9583 79.5938 19.3125C79.8438 19.6667 80.2396 19.8438 80.7812 19.8438C81.1875 19.8438 81.6146 19.6771 82.0625 19.3438C82.5104 19.0104 82.9792 18.5104 83.4688 17.8438V12.9375C83.4688 12.1562 83.3438 11.6146 83.0938 11.3125C82.8542 11.0104 82.2812 10.8594 81.375 10.8594V9.20312H88.5312V18.2656C88.5312 19.0573 88.651 19.6042 88.8906 19.9062C89.1406 20.1979 89.7292 20.3438 90.6562 20.3438V22C90.375 21.9896 90.1198 21.9844 89.8906 21.9844C87.974 21.9844 85.8333 22.1615 83.4688 22.5156V20.25Z" fill="white"/>
</svg>
